<?xml version="1.0" standalone="no"?>
<!DOCTYPE svg PUBLIC "-//W3C//DTD SVG 20010904//EN"
 "http://www.w3.org/TR/2001/REC-SVG-20010904/DTD/svg10.dtd">
<svg version="1.0" xmlns="http://www.w3.org/2000/svg"
 width="360.000000pt" height="200.000000pt" viewBox="0 0 360.000000 200.000000"
 preserveAspectRatio="xMidYMid meet">
<metadata>
Created by potrace 1.16, written by Peter Selinger 2001-2019
</metadata>
<g transform="translate(0.000000,200.000000) scale(0.100000,-0.100000)"
fill="#000000" stroke="none">
<path d="M877 1399 c-71 -24 -129 -59 -180 -108 -67 -63 -81 -88 -78 -145 1
-28 4 -52 6 -54 2 -2 26 13 53 33 67 48 159 84 257 102 177 31 377 -27 512
-150 29 -27 56 -47 60 -44 8 9 -25 105 -50 147 -64 107 -161 185 -274 220 -88
27 -226 27 -306 -1z"/>
<path d="M2591 1340 c-75 -18 -112 -100 -88 -196 18 -71 60 -97 146 -92 56 4
67 8 91 35 43 47 49 116 18 196 -18 46 -97 73 -167 57z"/>
<path d="M1715 1310 c4 -17 24 -82 44 -143 l38 -112 49 -3 49 -3 44 133 c24
73 46 139 48 146 4 8 -9 12 -45 12 -46 0 -50 -2 -57 -27 -3 -16 -13 -53 -22
-83 l-16 -55 -22 80 -22 80 -47 3 -48 3 7 -31z"/>
<path d="M2010 1195 l0 -145 40 0 40 0 0 145 0 145 -40 0 -40 0 0 -145z"/>
<path d="M2163 1326 c-12 -9 -24 -30 -28 -47 -11 -47 10 -84 63 -111 26 -13
46 -28 44 -34 -3 -11 -46 -11 -84 0 -27 8 -28 7 -28 -32 0 -39 2 -41 36 -48
55 -10 124 1 147 25 27 27 29 91 4 119 -10 10 -35 27 -57 37 -55 25 -51 39 8
31 47 -6 48 -5 60 26 6 17 9 34 6 37 -3 3 -38 7 -77 9 -54 2 -78 -1 -94 -12z"/>
<path d="M2370 1195 l0 -145 40 0 40 0 0 145 0 145 -40 0 -40 0 0 -145z"/>
<path d="M2820 1195 l0 -145 35 0 35 0 0 88 1 87 47 -87 47 -88 53 0 52 0 0
145 0 145 -41 0 -41 0 3 -84 4 -84 -42 76 c-24 42 -43 80 -43 85 0 4 -25 7
-55 7 l-55 0 0 -145z"/>
<path d="M915 1190 c-133 -28 -253 -97 -341 -194 -86 -95 -85 -123 10 -224 71
-75 143 -122 244 -160 60 -23 82 -26 202 -26 116 -1 144 3 200 23 75 26 157
74 218 126 l42 37 0 115 0 114 -41 37 c-59 54 -155 110 -229 133 -73 23 -239
34 -305 19z m248 -85 c86 -22 168 -68 236 -130 82 -77 84 -86 25 -147 -93 -96
-214 -157 -341 -171 -36 -4 -43 -2 -43 13 0 13 13 21 44 29 194 48 193 329 -1
380 -26 7 -43 18 -43 26 0 20 48 20 123 0z m-133 -215 c0 -150 -3 -190 -13
-190 -7 0 -37 12 -65 26 -89 44 -127 145 -88 237 16 40 77 95 114 103 15 3 32
7 37 9 6 2 11 4 13 4 1 1 2 -84 2 -189z"/>
<path d="M1740 820 l0 -160 45 0 45 0 0 49 0 49 43 6 c68 11 97 44 97 111 0
76 -44 105 -160 105 l-70 0 0 -160z"/>
<path d="M2010 820 l0 -160 45 0 45 0 0 65 0 65 45 0 45 0 0 -65 0 -65 45 0
45 0 0 160 0 160 -45 0 -45 0 0 -60 0 -60 -45 0 -45 0 0 60 0 60 -45 0 -45 0
0 -160z"/>
<path d="M2357 831 c-26 -82 -47 -154 -47 -160 0 -6 20 -11 49 -11 46 0 49 2
55 30 5 28 8 30 51 30 43 0 46 -2 52 -30 5 -29 8 -30 58 -30 l53 0 -32 103
c-18 56 -41 128 -51 160 l-19 57 -61 0 -61 0 -47 -149z"/>
<path d="M2685 969 c-34 -19 -45 -41 -45 -86 0 -50 20 -75 80 -99 22 -9 40
-22 40 -29 0 -25 -26 -24 -107 0 -21 7 -23 4 -23 -33 0 -51 17 -62 95 -62 90
0 135 35 135 104 0 34 -36 74 -86 98 -62 29 -54 55 11 36 16 -4 35 -8 41 -8
16 0 37 61 25 73 -15 15 -143 19 -166 6z"/>
<path d="M2900 820 l0 -160 95 0 95 0 0 40 0 40 -50 0 c-47 0 -50 2 -50 25 0
23 4 25 45 25 45 0 45 0 45 35 0 35 0 35 -45 35 -38 0 -45 3 -45 20 0 17 7 20
50 20 l50 0 0 40 0 40 -95 0 -95 0 0 -160z"/>
</g>
</svg>
